<svg width="8" height="12" viewBox="0 0 8 12" fill="none" xmlns="http://www.w3.org/2000/svg">
<mask id="path-1-inside-1_5_467" fill="white">
<path d="M4.6 6L0 1.4L1.4 0L7.4 6L1.4 12L0 10.6L4.6 6Z"/>
</mask>
<path d="M4.6 6L0 1.4L1.4 0L7.4 6L1.4 12L0 10.6L4.6 6Z" fill="#103073"/>
<path d="M4.6 6L6.01421 7.41421L7.42843 6L6.01421 4.58579L4.6 6ZM0 1.4L-1.41421 -0.0142136L-2.82843 1.4L-1.41421 2.81421L0 1.4ZM1.4 0L2.81421 -1.41421L1.4 -2.82843L-0.0142136 -1.41421L1.4 0ZM7.4 6L8.81421 7.41421L10.2284 6L8.81421 4.58579L7.4 6ZM1.4 12L-0.0142134 13.4142L1.4 14.8284L2.81421 13.4142L1.4 12ZM0 10.6L-1.41421 9.18579L-2.82843 10.6L-1.41421 12.0142L0 10.6ZM6.01421 4.58579L1.41421 -0.0142136L-1.41421 2.81421L3.18579 7.41421L6.01421 4.58579ZM1.41421 2.81421L2.81421 1.41421L-0.0142136 -1.41421L-1.41421 -0.0142136L1.41421 2.81421ZM-0.0142136 1.41421L5.98579 7.41421L8.81421 4.58579L2.81421 -1.41421L-0.0142136 1.41421ZM5.98579 4.58579L-0.0142136 10.5858L2.81421 13.4142L8.81421 7.41421L5.98579 4.58579ZM2.81421 10.5858L1.41421 9.18579L-1.41421 12.0142L-0.0142134 13.4142L2.81421 10.5858ZM1.41421 12.0142L6.01421 7.41421L3.18579 4.58579L-1.41421 9.18579L1.41421 12.0142Z" fill="#103073" mask="url(#path-1-inside-1_5_467)"/>
</svg>
