<svg width="20" height="20" viewBox="0 0 20 20" fill="none" xmlns="http://www.w3.org/2000/svg">
<path d="M12.75 13.9166L13.9167 12.75L10.8333 9.66663V5.83329H9.16666V10.3333L12.75 13.9166ZM9.99999 18.3333C8.84721 18.3333 7.76388 18.1145 6.74999 17.677C5.7361 17.2395 4.85416 16.6458 4.10416 15.8958C3.35416 15.1458 2.76041 14.2638 2.32291 13.25C1.88541 12.2361 1.66666 11.1527 1.66666 9.99996C1.66666 8.84718 1.88541 7.76385 2.32291 6.74996C2.76041 5.73607 3.35416 4.85413 4.10416 4.10413C4.85416 3.35413 5.7361 2.76038 6.74999 2.32288C7.76388 1.88538 8.84721 1.66663 9.99999 1.66663C11.1528 1.66663 12.2361 1.88538 13.25 2.32288C14.2639 2.76038 15.1458 3.35413 15.8958 4.10413C16.6458 4.85413 17.2396 5.73607 17.6771 6.74996C18.1146 7.76385 18.3333 8.84718 18.3333 9.99996C18.3333 11.1527 18.1146 12.2361 17.6771 13.25C17.2396 14.2638 16.6458 15.1458 15.8958 15.8958C15.1458 16.6458 14.2639 17.2395 13.25 17.677C12.2361 18.1145 11.1528 18.3333 9.99999 18.3333ZM9.99999 16.6666C11.8472 16.6666 13.4201 16.0173 14.7187 14.7187C16.0174 13.4201 16.6667 11.8472 16.6667 9.99996C16.6667 8.15274 16.0174 6.57982 14.7187 5.28121C13.4201 3.9826 11.8472 3.33329 9.99999 3.33329C8.15277 3.33329 6.57985 3.9826 5.28124 5.28121C3.98263 6.57982 3.33332 8.15274 3.33332 9.99996C3.33332 11.8472 3.98263 13.4201 5.28124 14.7187C6.57985 16.0173 8.15277 16.6666 9.99999 16.6666Z" fill="#2B4C91"/>
</svg>
