<svg width="50" height="50" viewBox="0 0 50 50" fill="none" xmlns="http://www.w3.org/2000/svg">
<path d="M25.0244 4.16669C13.5536 4.16669 4.21558 13.4966 4.21142 24.9675C4.20933 28.6341 5.16972 32.2137 6.99055 35.3679L4.16666 45.8334L15.0675 43.2577C18.1071 44.916 21.5289 45.7865 25.0122 45.7886H25.0203C36.4891 45.7886 45.823 36.4566 45.8293 24.9878C45.8334 19.4274 43.6712 14.1995 39.742 10.2661C35.8128 6.33488 30.5911 4.16877 25.0244 4.16669ZM25.0203 8.33335C29.4703 8.33544 33.6523 10.0704 36.7961 13.2121C39.9398 16.3579 41.6668 20.5379 41.6626 24.9837C41.6584 34.1587 34.1954 41.6219 25.0163 41.6219C22.2392 41.6198 19.4883 40.9226 17.0654 39.5996L15.6616 38.8347L14.1113 39.2009L10.0098 40.1693L11.0107 36.4502L11.4624 34.7819L10.5998 33.2845C9.1456 30.7679 8.376 27.8904 8.37808 24.9675C8.38225 15.7966 15.8474 8.33335 25.0203 8.33335ZM17.6595 15.3646C17.3116 15.3646 16.749 15.4948 16.272 16.0156C15.7949 16.5344 14.449 17.7908 14.449 20.3491C14.449 22.9075 16.3127 25.3805 16.5731 25.7284C16.8314 26.0742 20.1703 31.4901 25.4557 33.5734C29.8474 35.3047 30.7393 34.963 31.6935 34.8755C32.6477 34.7901 34.7717 33.6202 35.2051 32.4056C35.6384 31.191 35.6394 30.1462 35.5102 29.9317C35.3811 29.715 35.0342 29.5858 34.5133 29.3254C33.9946 29.065 31.4382 27.8097 30.9611 27.6367C30.484 27.4638 30.135 27.3763 29.7892 27.8972C29.4434 28.418 28.4495 29.5858 28.1453 29.9317C27.8412 30.2796 27.5391 30.3264 27.0182 30.0659C26.4974 29.8034 24.8228 29.253 22.8353 27.4821C21.2894 26.105 20.2464 24.4059 19.9422 23.8851C19.6401 23.3664 19.9137 23.0814 20.1741 22.8231C20.4075 22.5898 20.6909 22.2158 20.9513 21.9116C21.2097 21.6075 21.2992 21.3908 21.4722 21.0449C21.6451 20.6991 21.5566 20.3939 21.4274 20.1335C21.2982 19.8731 20.2867 17.3052 19.8242 16.2761C19.4346 15.4115 19.0232 15.3914 18.6523 15.3768C18.3502 15.3643 18.0053 15.3646 17.6595 15.3646Z" fill="#DAE7F0"/>
</svg>
