<svg width="50" height="50" viewBox="0 0 50 50" fill="none" xmlns="http://www.w3.org/2000/svg">
<path d="M25.0244 4.16675C13.5536 4.16675 4.21558 13.4967 4.21142 24.9675C4.20933 28.6342 5.16972 32.2138 6.99055 35.3679L4.16666 45.8334L15.0675 43.2577C18.1071 44.9161 21.5289 45.7866 25.0122 45.7887H25.0203C36.4891 45.7887 45.823 36.4566 45.8293 24.9879C45.8334 19.4275 43.6712 14.1995 39.742 10.2662C35.8128 6.33494 30.5911 4.16883 25.0244 4.16675ZM25.0203 8.33342C29.4703 8.3355 33.6523 10.0705 36.7961 13.2122C39.9398 16.358 41.6668 20.538 41.6626 24.9838C41.6584 34.1588 34.1954 41.622 25.0163 41.622C22.2392 41.6199 19.4883 40.9226 17.0654 39.5997L15.6616 38.8347L14.1113 39.2009L10.0098 40.1694L11.0107 36.4503L11.4624 34.782L10.5998 33.2846C9.1456 30.7679 8.376 27.8904 8.37808 24.9675C8.38225 15.7967 15.8474 8.33342 25.0203 8.33342ZM17.6595 15.3647C17.3116 15.3647 16.749 15.4949 16.272 16.0157C15.7949 16.5345 14.449 17.7909 14.449 20.3492C14.449 22.9075 16.3127 25.3805 16.5731 25.7284C16.8314 26.0743 20.1703 31.4902 25.4557 33.5735C29.8474 35.3047 30.7393 34.9631 31.6935 34.8756C32.6477 34.7902 34.7717 33.6203 35.2051 32.4057C35.6384 31.1911 35.6394 30.1463 35.5102 29.9317C35.3811 29.7151 35.0342 29.5859 34.5133 29.3254C33.9946 29.065 31.4382 27.8097 30.9611 27.6368C30.484 27.4639 30.135 27.3764 29.7892 27.8972C29.4434 28.4181 28.4495 29.5859 28.1453 29.9317C27.8412 30.2796 27.5391 30.3264 27.0182 30.066C26.4974 29.8035 24.8228 29.253 22.8353 27.4822C21.2894 26.1051 20.2464 24.406 19.9422 23.8852C19.6401 23.3664 19.9137 23.0815 20.1741 22.8232C20.4075 22.5898 20.6909 22.2159 20.9513 21.9117C21.2097 21.6075 21.2992 21.3908 21.4722 21.045C21.6451 20.6992 21.5566 20.394 21.4274 20.1335C21.2982 19.8731 20.2867 17.3053 19.8242 16.2761C19.4346 15.4115 19.0232 15.3915 18.6523 15.3769C18.3502 15.3644 18.0053 15.3647 17.6595 15.3647Z" fill="#103073"/>
</svg>
