<svg width="172" height="38" viewBox="0 0 172 38" fill="none" xmlns="http://www.w3.org/2000/svg">
<path d="M16.006 2.574C17.93 2.574 19.6113 2.95533 21.05 3.718C22.4887 4.48067 23.598 5.55533 24.378 6.942C25.1753 8.31133 25.574 9.89733 25.574 11.7C25.574 13.4853 25.1753 15.0713 24.378 16.458C23.598 17.8447 22.48 18.9193 21.024 19.682C19.5853 20.4447 17.9127 20.826 16.006 20.826H9.168V2.574H16.006ZM15.72 16.978C17.4013 16.978 18.71 16.5187 19.646 15.6C20.582 14.6813 21.05 13.3813 21.05 11.7C21.05 10.0187 20.582 8.71 19.646 7.774C18.71 6.838 17.4013 6.37 15.72 6.37H13.614V16.978H15.72Z" fill="#103073"/>
<path d="M32.5046 8.736C33.0246 7.93867 33.6746 7.31467 34.4546 6.864C35.2346 6.396 36.1013 6.162 37.0546 6.162V10.868H35.8326C34.7233 10.868 33.8913 11.1107 33.3366 11.596C32.782 12.064 32.5046 12.896 32.5046 14.092V20.826H28.0586V6.318H32.5046V8.736Z" fill="#103073"/>
<path d="M38.2957 13.546C38.2957 12.0553 38.5731 10.7467 39.1277 9.62C39.6997 8.49333 40.4711 7.62667 41.4417 7.02C42.4124 6.41333 43.4957 6.11 44.6917 6.11C45.7144 6.11 46.6071 6.318 47.3697 6.734C48.1497 7.15 48.7477 7.696 49.1637 8.372V6.318H53.6097V20.826H49.1637V18.772C48.7304 19.448 48.1237 19.994 47.3437 20.41C46.5811 20.826 45.6884 21.034 44.6657 21.034C43.4871 21.034 42.4124 20.7307 41.4417 20.124C40.4711 19.5 39.6997 18.6247 39.1277 17.498C38.5731 16.354 38.2957 15.0367 38.2957 13.546ZM49.1637 13.572C49.1637 12.4627 48.8517 11.5873 48.2277 10.946C47.6211 10.3047 46.8757 9.984 45.9917 9.984C45.1077 9.984 44.3537 10.3047 43.7297 10.946C43.1231 11.57 42.8197 12.4367 42.8197 13.546C42.8197 14.6553 43.1231 15.5393 43.7297 16.198C44.3537 16.8393 45.1077 17.16 45.9917 17.16C46.8757 17.16 47.6211 16.8393 48.2277 16.198C48.8517 15.5567 49.1637 14.6813 49.1637 13.572Z" fill="#103073"/>
<path d="M58.9062 21.034C58.1262 21.034 57.4849 20.8087 56.9822 20.358C56.4969 19.89 56.2542 19.318 56.2542 18.642C56.2542 17.9487 56.4969 17.368 56.9822 16.9C57.4849 16.432 58.1262 16.198 58.9062 16.198C59.6689 16.198 60.2929 16.432 60.7782 16.9C61.2809 17.368 61.5322 17.9487 61.5322 18.642C61.5322 19.318 61.2809 19.89 60.7782 20.358C60.2929 20.8087 59.6689 21.034 58.9062 21.034Z" fill="#103073"/>
<path d="M90.3439 2.574V20.826H85.8979V9.88L81.8159 20.826H78.2279L74.1199 9.854V20.826H69.6739V2.574H74.9259L80.0479 15.21L85.1179 2.574H90.3439Z" fill="#103073"/>
<path d="M92.657 13.546C92.657 12.0553 92.9344 10.7467 93.489 9.62C94.061 8.49333 94.8324 7.62667 95.803 7.02C96.7737 6.41333 97.857 6.11 99.053 6.11C100.076 6.11 100.968 6.318 101.731 6.734C102.511 7.15 103.109 7.696 103.525 8.372V6.318H107.971V20.826H103.525V18.772C103.092 19.448 102.485 19.994 101.705 20.41C100.942 20.826 100.05 21.034 99.027 21.034C97.8484 21.034 96.7737 20.7307 95.803 20.124C94.8324 19.5 94.061 18.6247 93.489 17.498C92.9344 16.354 92.657 15.0367 92.657 13.546ZM103.525 13.572C103.525 12.4627 103.213 11.5873 102.589 10.946C101.982 10.3047 101.237 9.984 100.353 9.984C99.469 9.984 98.715 10.3047 98.091 10.946C97.4844 11.57 97.181 12.4367 97.181 13.546C97.181 14.6553 97.4844 15.5393 98.091 16.198C98.715 16.8393 99.469 17.16 100.353 17.16C101.237 17.16 101.982 16.8393 102.589 16.198C103.213 15.5567 103.525 14.6813 103.525 13.572Z" fill="#103073"/>
<path d="M115.634 8.736C116.154 7.93867 116.804 7.31467 117.584 6.864C118.364 6.396 119.23 6.162 120.184 6.162V10.868H118.962C117.852 10.868 117.02 11.1107 116.466 11.596C115.911 12.064 115.634 12.896 115.634 14.092V20.826H111.188V6.318H115.634V8.736Z" fill="#103073"/>
<path d="M124.545 4.81C123.765 4.81 123.123 4.58467 122.621 4.134C122.135 3.666 121.893 3.094 121.893 2.418C121.893 1.72467 122.135 1.15267 122.621 0.702C123.123 0.234 123.765 0 124.545 0C125.307 0 125.931 0.234 126.417 0.702C126.919 1.15267 127.171 1.72467 127.171 2.418C127.171 3.094 126.919 3.666 126.417 4.134C125.931 4.58467 125.307 4.81 124.545 4.81ZM126.755 6.318V20.826H122.309V6.318H126.755Z" fill="#103073"/>
<path d="M138.817 6.162C140.515 6.162 141.867 6.71667 142.873 7.826C143.895 8.918 144.407 10.426 144.407 12.35V20.826H139.987V12.948C139.987 11.9773 139.735 11.2233 139.233 10.686C138.73 10.1487 138.054 9.88 137.205 9.88C136.355 9.88 135.679 10.1487 135.177 10.686C134.674 11.2233 134.423 11.9773 134.423 12.948V20.826H129.977V6.318H134.423V8.242C134.873 7.60067 135.48 7.098 136.243 6.734C137.005 6.35267 137.863 6.162 138.817 6.162Z" fill="#103073"/>
<path d="M146.612 13.546C146.612 12.0553 146.889 10.7467 147.444 9.62C148.016 8.49333 148.787 7.62667 149.758 7.02C150.729 6.41333 151.812 6.11 153.008 6.11C154.031 6.11 154.923 6.318 155.686 6.734C156.466 7.15 157.064 7.696 157.48 8.372V6.318H161.926V20.826H157.48V18.772C157.047 19.448 156.44 19.994 155.66 20.41C154.897 20.826 154.005 21.034 152.982 21.034C151.803 21.034 150.729 20.7307 149.758 20.124C148.787 19.5 148.016 18.6247 147.444 17.498C146.889 16.354 146.612 15.0367 146.612 13.546ZM157.48 13.572C157.48 12.4627 157.168 11.5873 156.544 10.946C155.937 10.3047 155.192 9.984 154.308 9.984C153.424 9.984 152.67 10.3047 152.046 10.946C151.439 11.57 151.136 12.4367 151.136 13.546C151.136 14.6553 151.439 15.5393 152.046 16.198C152.67 16.8393 153.424 17.16 154.308 17.16C155.192 17.16 155.937 16.8393 156.544 16.198C157.168 15.5567 157.48 14.6813 157.48 13.572Z" fill="#103073"/>
<path d="M0 33.638C0 32.822 0.188 32.09 0.564 31.442C0.948 30.794 1.464 30.29 2.112 29.93C2.768 29.562 3.484 29.378 4.26 29.378C5.148 29.378 5.936 29.598 6.624 30.038C7.32 30.47 7.824 31.086 8.136 31.886H6.492C6.276 31.446 5.976 31.118 5.592 30.902C5.208 30.686 4.764 30.578 4.26 30.578C3.708 30.578 3.216 30.702 2.784 30.95C2.352 31.198 2.012 31.554 1.764 32.018C1.524 32.482 1.404 33.022 1.404 33.638C1.404 34.254 1.524 34.794 1.764 35.258C2.012 35.722 2.352 36.082 2.784 36.338C3.216 36.586 3.708 36.71 4.26 36.71C4.764 36.71 5.208 36.602 5.592 36.386C5.976 36.17 6.276 35.842 6.492 35.402H8.136C7.824 36.202 7.32 36.818 6.624 37.25C5.936 37.682 5.148 37.898 4.26 37.898C3.476 37.898 2.76 37.718 2.112 37.358C1.464 36.99 0.948 36.482 0.564 35.834C0.188 35.186 0 34.454 0 33.638Z" fill="#ABABCE"/>
<path d="M13.0253 36.722H15.8453V37.826H11.6573V29.486H13.0253V36.722Z" fill="#ABABCE"/>
<path d="M20.2773 29.486V37.826H18.9093V29.486H20.2773ZM20.8293 27.698L18.1773 29.006V27.998L20.8293 26.534V27.698Z" fill="#ABABCE"/>
<path d="M30.8453 37.826H29.4773L25.3613 31.598V37.826H23.9933V29.474H25.3613L29.4773 35.69V29.474H30.8453V37.826Z" fill="#ABABCE"/>
<path d="M35.9298 29.486V37.826H34.5618V29.486H35.9298Z" fill="#ABABCE"/>
<path d="M39.1898 33.638C39.1898 32.822 39.3778 32.09 39.7538 31.442C40.1378 30.794 40.6538 30.29 41.3018 29.93C41.9578 29.562 42.6738 29.378 43.4498 29.378C44.3378 29.378 45.1258 29.598 45.8138 30.038C46.5098 30.47 47.0138 31.086 47.3258 31.886H45.6818C45.4658 31.446 45.1658 31.118 44.7818 30.902C44.3978 30.686 43.9538 30.578 43.4498 30.578C42.8978 30.578 42.4058 30.702 41.9738 30.95C41.5418 31.198 41.2018 31.554 40.9538 32.018C40.7138 32.482 40.5938 33.022 40.5938 33.638C40.5938 34.254 40.7138 34.794 40.9538 35.258C41.2018 35.722 41.5418 36.082 41.9738 36.338C42.4058 36.586 42.8978 36.71 43.4498 36.71C43.9538 36.71 44.3978 36.602 44.7818 36.386C45.1658 36.17 45.4658 35.842 45.6818 35.402H47.3258C47.0138 36.202 46.5098 36.818 45.8138 37.25C45.1258 37.682 44.3378 37.898 43.4498 37.898C42.6658 37.898 41.9498 37.718 41.3018 37.358C40.6538 36.99 40.1378 36.482 39.7538 35.834C39.3778 35.186 39.1898 34.454 39.1898 33.638Z" fill="#ABABCE"/>
<path d="M55.8751 36.122H52.3831L51.7831 37.826H50.3551L53.3431 29.474H54.9271L57.9151 37.826H56.4751L55.8751 36.122ZM55.4911 35.006L54.1351 31.13L52.7671 35.006H55.4911Z" fill="#ABABCE"/>
<path d="M69.9755 37.91C69.1995 37.91 68.4835 37.73 67.8275 37.37C67.1795 37.002 66.6635 36.494 66.2795 35.846C65.9035 35.19 65.7155 34.454 65.7155 33.638C65.7155 32.822 65.9035 32.09 66.2795 31.442C66.6635 30.794 67.1795 30.29 67.8275 29.93C68.4835 29.562 69.1995 29.378 69.9755 29.378C70.7595 29.378 71.4755 29.562 72.1235 29.93C72.7795 30.29 73.2955 30.794 73.6715 31.442C74.0475 32.09 74.2355 32.822 74.2355 33.638C74.2355 34.454 74.0475 35.19 73.6715 35.846C73.2955 36.494 72.7795 37.002 72.1235 37.37C71.4755 37.73 70.7595 37.91 69.9755 37.91ZM69.9755 36.722C70.5275 36.722 71.0195 36.598 71.4515 36.35C71.8835 36.094 72.2195 35.734 72.4595 35.27C72.7075 34.798 72.8315 34.254 72.8315 33.638C72.8315 33.022 72.7075 32.482 72.4595 32.018C72.2195 31.554 71.8835 31.198 71.4515 30.95C71.0195 30.702 70.5275 30.578 69.9755 30.578C69.4235 30.578 68.9315 30.702 68.4995 30.95C68.0675 31.198 67.7275 31.554 67.4795 32.018C67.2395 32.482 67.1195 33.022 67.1195 33.638C67.1195 34.254 67.2395 34.798 67.4795 35.27C67.7275 35.734 68.0675 36.094 68.4995 36.35C68.9315 36.598 69.4235 36.722 69.9755 36.722Z" fill="#ABABCE"/>
<path d="M80.2256 29.486C81.1136 29.486 81.8896 29.658 82.5536 30.002C83.2256 30.338 83.7416 30.826 84.1016 31.466C84.4696 32.098 84.6536 32.838 84.6536 33.686C84.6536 34.534 84.4696 35.27 84.1016 35.894C83.7416 36.518 83.2256 36.998 82.5536 37.334C81.8896 37.662 81.1136 37.826 80.2256 37.826H77.5016V29.486H80.2256ZM80.2256 36.71C81.2016 36.71 81.9496 36.446 82.4696 35.918C82.9896 35.39 83.2496 34.646 83.2496 33.686C83.2496 32.718 82.9896 31.962 82.4696 31.418C81.9496 30.874 81.2016 30.602 80.2256 30.602H78.8696V36.71H80.2256Z" fill="#ABABCE"/>
<path d="M91.7334 37.91C90.9574 37.91 90.2414 37.73 89.5854 37.37C88.9374 37.002 88.4214 36.494 88.0374 35.846C87.6614 35.19 87.4734 34.454 87.4734 33.638C87.4734 32.822 87.6614 32.09 88.0374 31.442C88.4214 30.794 88.9374 30.29 89.5854 29.93C90.2414 29.562 90.9574 29.378 91.7334 29.378C92.5174 29.378 93.2334 29.562 93.8814 29.93C94.5374 30.29 95.0534 30.794 95.4294 31.442C95.8054 32.09 95.9934 32.822 95.9934 33.638C95.9934 34.454 95.8054 35.19 95.4294 35.846C95.0534 36.494 94.5374 37.002 93.8814 37.37C93.2334 37.73 92.5174 37.91 91.7334 37.91ZM91.7334 36.722C92.2854 36.722 92.7774 36.598 93.2094 36.35C93.6414 36.094 93.9774 35.734 94.2174 35.27C94.4654 34.798 94.5894 34.254 94.5894 33.638C94.5894 33.022 94.4654 32.482 94.2174 32.018C93.9774 31.554 93.6414 31.198 93.2094 30.95C92.7774 30.702 92.2854 30.578 91.7334 30.578C91.1814 30.578 90.6894 30.702 90.2574 30.95C89.8254 31.198 89.4854 31.554 89.2374 32.018C88.9974 32.482 88.8774 33.022 88.8774 33.638C88.8774 34.254 88.9974 34.798 89.2374 35.27C89.4854 35.734 89.8254 36.094 90.2574 36.35C90.6894 36.598 91.1814 36.722 91.7334 36.722Z" fill="#ABABCE"/>
<path d="M106.112 37.826H104.744L100.628 31.598V37.826H99.2596V29.474H100.628L104.744 35.69V29.474H106.112V37.826Z" fill="#ABABCE"/>
<path d="M115.216 29.486V30.602H112.996V37.826H111.628V30.602H109.396V29.486H115.216Z" fill="#ABABCE"/>
<path d="M122.325 37.91C121.549 37.91 120.833 37.73 120.177 37.37C119.529 37.002 119.013 36.494 118.629 35.846C118.253 35.19 118.065 34.454 118.065 33.638C118.065 32.822 118.253 32.09 118.629 31.442C119.013 30.794 119.529 30.29 120.177 29.93C120.833 29.562 121.549 29.378 122.325 29.378C123.109 29.378 123.825 29.562 124.473 29.93C125.129 30.29 125.645 30.794 126.021 31.442C126.397 32.09 126.585 32.822 126.585 33.638C126.585 34.454 126.397 35.19 126.021 35.846C125.645 36.494 125.129 37.002 124.473 37.37C123.825 37.73 123.109 37.91 122.325 37.91ZM122.325 36.722C122.877 36.722 123.369 36.598 123.801 36.35C124.233 36.094 124.569 35.734 124.809 35.27C125.057 34.798 125.181 34.254 125.181 33.638C125.181 33.022 125.057 32.482 124.809 32.018C124.569 31.554 124.233 31.198 123.801 30.95C123.369 30.702 122.877 30.578 122.325 30.578C121.773 30.578 121.281 30.702 120.849 30.95C120.417 31.198 120.077 31.554 119.829 32.018C119.589 32.482 119.469 33.022 119.469 33.638C119.469 34.254 119.589 34.798 119.829 35.27C120.077 35.734 120.417 36.094 120.849 36.35C121.281 36.598 121.773 36.722 122.325 36.722Z" fill="#ABABCE"/>
<path d="M131.22 36.722H134.04V37.826H129.852V29.486H131.22V36.722Z" fill="#ABABCE"/>
<path d="M140.908 37.91C140.132 37.91 139.416 37.73 138.76 37.37C138.112 37.002 137.596 36.494 137.212 35.846C136.836 35.19 136.648 34.454 136.648 33.638C136.648 32.822 136.836 32.09 137.212 31.442C137.596 30.794 138.112 30.29 138.76 29.93C139.416 29.562 140.132 29.378 140.908 29.378C141.692 29.378 142.408 29.562 143.056 29.93C143.712 30.29 144.228 30.794 144.604 31.442C144.98 32.09 145.168 32.822 145.168 33.638C145.168 34.454 144.98 35.19 144.604 35.846C144.228 36.494 143.712 37.002 143.056 37.37C142.408 37.73 141.692 37.91 140.908 37.91ZM140.908 36.722C141.46 36.722 141.952 36.598 142.384 36.35C142.816 36.094 143.152 35.734 143.392 35.27C143.64 34.798 143.764 34.254 143.764 33.638C143.764 33.022 143.64 32.482 143.392 32.018C143.152 31.554 142.816 31.198 142.384 30.95C141.952 30.702 141.46 30.578 140.908 30.578C140.356 30.578 139.864 30.702 139.432 30.95C139 31.198 138.66 31.554 138.412 32.018C138.172 32.482 138.052 33.022 138.052 33.638C138.052 34.254 138.172 34.798 138.412 35.27C138.66 35.734 139 36.094 139.432 36.35C139.864 36.598 140.356 36.722 140.908 36.722Z" fill="#ABABCE"/>
<path d="M154.47 31.886C154.254 31.47 153.954 31.158 153.57 30.95C153.186 30.734 152.742 30.626 152.238 30.626C151.686 30.626 151.194 30.75 150.762 30.998C150.33 31.246 149.99 31.598 149.742 32.054C149.502 32.51 149.382 33.038 149.382 33.638C149.382 34.238 149.502 34.77 149.742 35.234C149.99 35.69 150.33 36.042 150.762 36.29C151.194 36.538 151.686 36.662 152.238 36.662C152.982 36.662 153.586 36.454 154.05 36.038C154.514 35.622 154.798 35.058 154.902 34.346H151.77V33.254H156.366V34.322C156.278 34.97 156.046 35.566 155.67 36.11C155.302 36.654 154.818 37.09 154.218 37.418C153.626 37.738 152.966 37.898 152.238 37.898C151.454 37.898 150.738 37.718 150.09 37.358C149.442 36.99 148.926 36.482 148.542 35.834C148.166 35.186 147.978 34.454 147.978 33.638C147.978 32.822 148.166 32.09 148.542 31.442C148.926 30.794 149.442 30.29 150.09 29.93C150.746 29.562 151.462 29.378 152.238 29.378C153.126 29.378 153.914 29.598 154.602 30.038C155.298 30.47 155.802 31.086 156.114 31.886H154.47Z" fill="#ABABCE"/>
<path d="M161.003 29.486V37.826H159.635V29.486H161.003Z" fill="#ABABCE"/>
<path d="M169.747 36.122H166.255L165.655 37.826H164.227L167.215 29.474H168.799L171.787 37.826H170.347L169.747 36.122ZM169.363 35.006L168.007 31.13L166.639 35.006H169.363Z" fill="#ABABCE"/>
</svg>
